<mxfile host="Electron" agent="Mozilla/5.0 (Windows NT 10.0; Win64; x64) AppleWebKit/537.36 (KHTML, like Gecko) draw.io/28.0.4 Chrome/138.0.7204.97 Electron/37.2.1 Safari/537.36" version="28.0.4" pages="3">
  <diagram name="Página-1" id="npT8rDkNy90TqaBNJGEv">
    <mxGraphModel dx="496" dy="1185" grid="1" gridSize="10" guides="1" tooltips="1" connect="1" arrows="1" fold="1" page="1" pageScale="1" pageWidth="827" pageHeight="1169" math="0" shadow="0">
      <root>
        <mxCell id="0" />
        <mxCell id="1" parent="0" />
        <mxCell id="62i8WHDM0fQkn11KJesh-1" value="" style="whiteSpace=wrap;html=1;aspect=fixed;" vertex="1" parent="1">
          <mxGeometry x="469" y="340" width="530" height="530" as="geometry" />
        </mxCell>
        <mxCell id="62i8WHDM0fQkn11KJesh-2" value="Login" style="text;html=1;align=center;verticalAlign=middle;whiteSpace=wrap;rounded=0;" vertex="1" parent="1">
          <mxGeometry x="624" y="350" width="220" height="30" as="geometry" />
        </mxCell>
        <mxCell id="62i8WHDM0fQkn11KJesh-4" style="rounded=0;orthogonalLoop=1;jettySize=auto;html=1;exitX=0.5;exitY=0.5;exitDx=0;exitDy=0;exitPerimeter=0;entryX=0;entryY=0;entryDx=0;entryDy=0;" edge="1" parent="1" source="62i8WHDM0fQkn11KJesh-5" target="62i8WHDM0fQkn11KJesh-10">
          <mxGeometry relative="1" as="geometry" />
        </mxCell>
        <mxCell id="62i8WHDM0fQkn11KJesh-5" value="Usuario" style="shape=umlActor;verticalLabelPosition=bottom;verticalAlign=top;html=1;outlineConnect=0;" vertex="1" parent="1">
          <mxGeometry x="390" y="390" width="30" height="60" as="geometry" />
        </mxCell>
        <mxCell id="62i8WHDM0fQkn11KJesh-8" style="edgeStyle=orthogonalEdgeStyle;rounded=0;orthogonalLoop=1;jettySize=auto;html=1;exitX=1;exitY=0.5;exitDx=0;exitDy=0;entryX=0;entryY=0.5;entryDx=0;entryDy=0;dashed=1;" edge="1" parent="1" source="62i8WHDM0fQkn11KJesh-10" target="62i8WHDM0fQkn11KJesh-13">
          <mxGeometry relative="1" as="geometry" />
        </mxCell>
        <mxCell id="62i8WHDM0fQkn11KJesh-9" value="include" style="edgeLabel;html=1;align=center;verticalAlign=middle;resizable=0;points=[];" vertex="1" connectable="0" parent="62i8WHDM0fQkn11KJesh-8">
          <mxGeometry x="0.052" y="-1" relative="1" as="geometry">
            <mxPoint x="-13" y="-11" as="offset" />
          </mxGeometry>
        </mxCell>
        <mxCell id="62i8WHDM0fQkn11KJesh-10" value="Iniciar Sesion" style="ellipse;whiteSpace=wrap;html=1;" vertex="1" parent="1">
          <mxGeometry x="560" y="430" width="120" height="80" as="geometry" />
        </mxCell>
        <mxCell id="62i8WHDM0fQkn11KJesh-13" value="Recuperar&lt;div&gt;Contraseña&lt;/div&gt;" style="ellipse;whiteSpace=wrap;html=1;" vertex="1" parent="1">
          <mxGeometry x="780" y="430" width="120" height="80" as="geometry" />
        </mxCell>
      </root>
    </mxGraphModel>
  </diagram>
  <diagram id="_zQhBHUQPcZFFe-285Tg" name="Página-2">
    <mxGraphModel dx="598" dy="1449" grid="1" gridSize="10" guides="1" tooltips="1" connect="1" arrows="1" fold="1" page="1" pageScale="1" pageWidth="827" pageHeight="1169" math="0" shadow="0">
      <root>
        <mxCell id="0" />
        <mxCell id="1" parent="0" />
        <mxCell id="jNLOif9-ojXYsl4hEVjG-2" value="" style="whiteSpace=wrap;html=1;aspect=fixed;" vertex="1" parent="1">
          <mxGeometry x="289" y="390" width="530" height="530" as="geometry" />
        </mxCell>
        <mxCell id="jNLOif9-ojXYsl4hEVjG-3" value="Escenario: Ventas" style="text;html=1;align=center;verticalAlign=middle;whiteSpace=wrap;rounded=0;" vertex="1" parent="1">
          <mxGeometry x="430" y="410" width="220" height="30" as="geometry" />
        </mxCell>
        <mxCell id="jNLOif9-ojXYsl4hEVjG-5" style="rounded=0;orthogonalLoop=1;jettySize=auto;html=1;exitX=0.5;exitY=0.5;exitDx=0;exitDy=0;exitPerimeter=0;entryX=0;entryY=0;entryDx=0;entryDy=0;" edge="1" parent="1" source="jNLOif9-ojXYsl4hEVjG-6" target="jNLOif9-ojXYsl4hEVjG-11">
          <mxGeometry relative="1" as="geometry" />
        </mxCell>
        <mxCell id="jNLOif9-ojXYsl4hEVjG-6" value="Empleado" style="shape=umlActor;verticalLabelPosition=bottom;verticalAlign=top;html=1;outlineConnect=0;" vertex="1" parent="1">
          <mxGeometry x="210" y="440" width="30" height="60" as="geometry" />
        </mxCell>
        <mxCell id="jNLOif9-ojXYsl4hEVjG-9" style="edgeStyle=orthogonalEdgeStyle;rounded=0;orthogonalLoop=1;jettySize=auto;html=1;exitX=1;exitY=0.5;exitDx=0;exitDy=0;entryX=0;entryY=0.5;entryDx=0;entryDy=0;dashed=1;" edge="1" parent="1" source="jNLOif9-ojXYsl4hEVjG-11" target="jNLOif9-ojXYsl4hEVjG-14">
          <mxGeometry relative="1" as="geometry" />
        </mxCell>
        <mxCell id="jNLOif9-ojXYsl4hEVjG-10" value="include" style="edgeLabel;html=1;align=center;verticalAlign=middle;resizable=0;points=[];" vertex="1" connectable="0" parent="jNLOif9-ojXYsl4hEVjG-9">
          <mxGeometry x="0.052" y="-1" relative="1" as="geometry">
            <mxPoint x="-13" y="-11" as="offset" />
          </mxGeometry>
        </mxCell>
        <mxCell id="jNLOif9-ojXYsl4hEVjG-11" value="Registrar Venta" style="ellipse;whiteSpace=wrap;html=1;" vertex="1" parent="1">
          <mxGeometry x="380" y="480" width="120" height="80" as="geometry" />
        </mxCell>
        <mxCell id="jNLOif9-ojXYsl4hEVjG-12" style="edgeStyle=orthogonalEdgeStyle;rounded=0;orthogonalLoop=1;jettySize=auto;html=1;exitX=0.5;exitY=1;exitDx=0;exitDy=0;entryX=0.5;entryY=0;entryDx=0;entryDy=0;dashed=1;" edge="1" parent="1" source="jNLOif9-ojXYsl4hEVjG-14" target="jNLOif9-ojXYsl4hEVjG-15">
          <mxGeometry relative="1" as="geometry" />
        </mxCell>
        <mxCell id="jNLOif9-ojXYsl4hEVjG-13" value="Include" style="edgeLabel;html=1;align=center;verticalAlign=middle;resizable=0;points=[];" vertex="1" connectable="0" parent="jNLOif9-ojXYsl4hEVjG-12">
          <mxGeometry x="0.0067" y="4" relative="1" as="geometry">
            <mxPoint x="16" as="offset" />
          </mxGeometry>
        </mxCell>
        <mxCell id="jNLOif9-ojXYsl4hEVjG-14" value="Generar factura" style="ellipse;whiteSpace=wrap;html=1;" vertex="1" parent="1">
          <mxGeometry x="600" y="480" width="120" height="80" as="geometry" />
        </mxCell>
        <mxCell id="jNLOif9-ojXYsl4hEVjG-15" value="Actualizar stock" style="ellipse;whiteSpace=wrap;html=1;" vertex="1" parent="1">
          <mxGeometry x="600" y="620" width="120" height="80" as="geometry" />
        </mxCell>
      </root>
    </mxGraphModel>
  </diagram>
  <diagram id="fNE3kwfgdkJhaPi964VE" name="Página-3">
    <mxGraphModel dx="316" dy="767" grid="1" gridSize="10" guides="1" tooltips="1" connect="1" arrows="1" fold="1" page="1" pageScale="1" pageWidth="827" pageHeight="1169" math="0" shadow="0">
      <root>
        <mxCell id="0" />
        <mxCell id="1" parent="0" />
        <mxCell id="lWradZZlmAeZubvBOXyq-1" value="" style="whiteSpace=wrap;html=1;aspect=fixed;" vertex="1" parent="1">
          <mxGeometry x="189" y="470" width="530" height="530" as="geometry" />
        </mxCell>
        <mxCell id="lWradZZlmAeZubvBOXyq-2" value="Escenario: Gestión de Clientes" style="text;html=1;align=center;verticalAlign=middle;whiteSpace=wrap;rounded=0;" vertex="1" parent="1">
          <mxGeometry x="330" y="490" width="220" height="30" as="geometry" />
        </mxCell>
        <mxCell id="lWradZZlmAeZubvBOXyq-3" style="rounded=0;orthogonalLoop=1;jettySize=auto;html=1;exitX=0.5;exitY=0.5;exitDx=0;exitDy=0;exitPerimeter=0;entryX=0;entryY=0;entryDx=0;entryDy=0;" edge="1" parent="1" source="lWradZZlmAeZubvBOXyq-4" target="lWradZZlmAeZubvBOXyq-7">
          <mxGeometry relative="1" as="geometry" />
        </mxCell>
        <mxCell id="lWradZZlmAeZubvBOXyq-4" value="Empleado" style="shape=umlActor;verticalLabelPosition=bottom;verticalAlign=top;html=1;outlineConnect=0;" vertex="1" parent="1">
          <mxGeometry x="110" y="520" width="30" height="60" as="geometry" />
        </mxCell>
        <mxCell id="lWradZZlmAeZubvBOXyq-5" style="edgeStyle=orthogonalEdgeStyle;rounded=0;orthogonalLoop=1;jettySize=auto;html=1;exitX=1;exitY=0.5;exitDx=0;exitDy=0;entryX=0;entryY=0.5;entryDx=0;entryDy=0;dashed=1;" edge="1" parent="1" source="lWradZZlmAeZubvBOXyq-7" target="lWradZZlmAeZubvBOXyq-10">
          <mxGeometry relative="1" as="geometry" />
        </mxCell>
        <mxCell id="lWradZZlmAeZubvBOXyq-6" value="include" style="edgeLabel;html=1;align=center;verticalAlign=middle;resizable=0;points=[];" vertex="1" connectable="0" parent="lWradZZlmAeZubvBOXyq-5">
          <mxGeometry x="0.052" y="-1" relative="1" as="geometry">
            <mxPoint x="-13" y="-11" as="offset" />
          </mxGeometry>
        </mxCell>
        <mxCell id="lWradZZlmAeZubvBOXyq-7" value="Registrar Cliente" style="ellipse;whiteSpace=wrap;html=1;" vertex="1" parent="1">
          <mxGeometry x="280" y="560" width="120" height="80" as="geometry" />
        </mxCell>
        <mxCell id="lWradZZlmAeZubvBOXyq-8" style="edgeStyle=orthogonalEdgeStyle;rounded=0;orthogonalLoop=1;jettySize=auto;html=1;exitX=0.5;exitY=1;exitDx=0;exitDy=0;entryX=0.5;entryY=0;entryDx=0;entryDy=0;dashed=1;" edge="1" parent="1" source="lWradZZlmAeZubvBOXyq-10" target="lWradZZlmAeZubvBOXyq-11">
          <mxGeometry relative="1" as="geometry" />
        </mxCell>
        <mxCell id="lWradZZlmAeZubvBOXyq-9" value="Include" style="edgeLabel;html=1;align=center;verticalAlign=middle;resizable=0;points=[];" vertex="1" connectable="0" parent="lWradZZlmAeZubvBOXyq-8">
          <mxGeometry x="0.0067" y="4" relative="1" as="geometry">
            <mxPoint x="16" as="offset" />
          </mxGeometry>
        </mxCell>
        <mxCell id="lWradZZlmAeZubvBOXyq-10" value="Modificar datos del cliente" style="ellipse;whiteSpace=wrap;html=1;" vertex="1" parent="1">
          <mxGeometry x="500" y="560" width="120" height="80" as="geometry" />
        </mxCell>
        <mxCell id="lWradZZlmAeZubvBOXyq-11" value="Consultar historial" style="ellipse;whiteSpace=wrap;html=1;" vertex="1" parent="1">
          <mxGeometry x="500" y="700" width="120" height="80" as="geometry" />
        </mxCell>
        <mxCell id="lWradZZlmAeZubvBOXyq-12" value="Empleado" style="shape=umlActor;verticalLabelPosition=bottom;verticalAlign=top;html=1;outlineConnect=0;" vertex="1" parent="1">
          <mxGeometry x="100" y="770" width="30" height="60" as="geometry" />
        </mxCell>
        <mxCell id="lWradZZlmAeZubvBOXyq-13" value="Actualizar sus datos" style="ellipse;whiteSpace=wrap;html=1;" vertex="1" parent="1">
          <mxGeometry x="290" y="790" width="120" height="80" as="geometry" />
        </mxCell>
        <mxCell id="lWradZZlmAeZubvBOXyq-15" style="rounded=0;orthogonalLoop=1;jettySize=auto;html=1;exitX=0.5;exitY=0.5;exitDx=0;exitDy=0;exitPerimeter=0;entryX=0;entryY=0;entryDx=0;entryDy=0;" edge="1" parent="1">
          <mxGeometry relative="1" as="geometry">
            <mxPoint x="120" y="808" as="sourcePoint" />
            <mxPoint x="293" y="830" as="targetPoint" />
          </mxGeometry>
        </mxCell>
        <mxCell id="lWradZZlmAeZubvBOXyq-16" value="" style="endArrow=none;dashed=1;html=1;dashPattern=1 3;strokeWidth=2;rounded=0;entryX=0.5;entryY=1;entryDx=0;entryDy=0;" edge="1" parent="1" target="lWradZZlmAeZubvBOXyq-7">
          <mxGeometry width="50" height="50" relative="1" as="geometry">
            <mxPoint x="340" y="790" as="sourcePoint" />
            <mxPoint x="390" y="740" as="targetPoint" />
          </mxGeometry>
        </mxCell>
        <mxCell id="lWradZZlmAeZubvBOXyq-17" value="extended" style="edgeLabel;html=1;align=center;verticalAlign=middle;resizable=0;points=[];" vertex="1" connectable="0" parent="lWradZZlmAeZubvBOXyq-16">
          <mxGeometry x="0.0016" relative="1" as="geometry">
            <mxPoint as="offset" />
          </mxGeometry>
        </mxCell>
      </root>
    </mxGraphModel>
  </diagram>
</mxfile>
